<svg xmlns="http://www.w3.org/2000/svg" version="1.1" xmlns:xlink="http://www.w3.org/1999/xlink" xmlns:svgjs="http://svgjs.com/svgjs" width="1920" height="1080" preserveAspectRatio="none" viewBox="0 0 1920 1080"><g mask="url(&quot;#SvgjsMask1000&quot;)" fill="none"><rect width="1920" height="1080" x="0" y="0" fill="rgba(212, 211, 220, 1)"></rect><path d="M0,497.254C99.5,497.285,193.833,479.691,288.406,448.768C411.578,408.494,562.821,397.721,634.529,289.78C706.685,181.165,679.363,33.45,648.473,-93.236C619.452,-212.257,556.948,-321.835,465.516,-403.372C380.451,-479.232,261.994,-489.618,156.262,-532.181C36.672,-580.322,-70.268,-695.053,-196.717,-669.955C-323.242,-644.842,-389.718,-508.262,-470.584,-407.764C-548.549,-310.87,-655.737,-219.13,-659.496,-94.821C-663.207,27.91,-558.934,122.237,-489.675,223.627C-431.732,308.451,-377.966,398.482,-288.292,448.591C-201.458,497.113,-99.471,497.223,0,497.254" fill="#a3a1b4"></path><path d="M1920 1640.604C2033.155 1662.841 2162.948 1671.113 2257.012 1604.4009999999998 2350.545 1538.065 2384.232 1413.049 2400.829 1299.587 2414.929 1203.196 2356.081 1115.719 2342.607 1019.238 2329.056 922.207 2362.868 820.883 2321.566 732.0409999999999 2273.508 628.6659999999999 2201.3559999999998 525.408 2094.529 485.60900000000004 1985.988 445.17100000000005 1856.412 463.65599999999995 1755.956 521.318 1662.468 574.981 1632.075 690.1030000000001 1576.92 782.719 1531.962 858.212 1476.781 927.525 1462.423 1014.21 1447.873 1102.058 1461.442 1191.585 1495.576 1273.828 1530.5520000000001 1358.1 1589.531 1427.1390000000001 1658.567 1486.798 1736.648 1554.274 1818.74 1620.705 1920 1640.604" fill="#ffffff"></path></g><defs><mask id="SvgjsMask1000"><rect width="1920" height="1080" fill="#ffffff"></rect></mask></defs></svg>